<mxfile host="app.diagrams.net" agent="Mozilla/5.0 (Windows NT 10.0; Win64; x64) AppleWebKit/537.36 (KHTML, like Gecko) Chrome/129.0.0.0 Safari/537.36" version="24.7.14">
  <diagram id="C5RBs43oDa-KdzZeNtuy" name="Page-1">
    <mxGraphModel dx="2074" dy="772" grid="1" gridSize="10" guides="1" tooltips="1" connect="1" arrows="1" fold="1" page="1" pageScale="1" pageWidth="827" pageHeight="1169" math="0" shadow="0">
      <root>
        <mxCell id="WIyWlLk6GJQsqaUBKTNV-0" />
        <mxCell id="WIyWlLk6GJQsqaUBKTNV-1" parent="WIyWlLk6GJQsqaUBKTNV-0" />
        <mxCell id="LyfAbCHnZ2l0TGlfnvpQ-0" value="&lt;font style=&quot;font-size: 36px;&quot;&gt;j&lt;/font&gt;" style="ellipse;whiteSpace=wrap;html=1;aspect=fixed;" vertex="1" parent="WIyWlLk6GJQsqaUBKTNV-1">
          <mxGeometry x="240" y="160" width="80" height="80" as="geometry" />
        </mxCell>
        <mxCell id="LyfAbCHnZ2l0TGlfnvpQ-2" value="" style="endArrow=classic;html=1;rounded=0;entryX=0;entryY=0;entryDx=0;entryDy=0;" edge="1" parent="WIyWlLk6GJQsqaUBKTNV-1" source="LyfAbCHnZ2l0TGlfnvpQ-4" target="LyfAbCHnZ2l0TGlfnvpQ-0">
          <mxGeometry width="50" height="50" relative="1" as="geometry">
            <mxPoint x="190" y="110" as="sourcePoint" />
            <mxPoint x="200" y="160" as="targetPoint" />
          </mxGeometry>
        </mxCell>
        <mxCell id="LyfAbCHnZ2l0TGlfnvpQ-4" value="&lt;font style=&quot;font-size: 48px;&quot;&gt;X&lt;/font&gt;" style="text;html=1;align=center;verticalAlign=middle;whiteSpace=wrap;rounded=0;" vertex="1" parent="WIyWlLk6GJQsqaUBKTNV-1">
          <mxGeometry x="140" y="50" width="80" height="50" as="geometry" />
        </mxCell>
        <mxCell id="LyfAbCHnZ2l0TGlfnvpQ-5" value="&lt;font style=&quot;font-size: 36px;&quot;&gt;_ on _&lt;/font&gt;" style="rounded=0;whiteSpace=wrap;html=1;" vertex="1" parent="WIyWlLk6GJQsqaUBKTNV-1">
          <mxGeometry x="360" y="40" width="120" height="60" as="geometry" />
        </mxCell>
        <mxCell id="LyfAbCHnZ2l0TGlfnvpQ-6" value="" style="endArrow=classic;html=1;rounded=0;entryX=1;entryY=0;entryDx=0;entryDy=0;exitX=0;exitY=1;exitDx=0;exitDy=0;" edge="1" parent="WIyWlLk6GJQsqaUBKTNV-1" source="LyfAbCHnZ2l0TGlfnvpQ-5" target="LyfAbCHnZ2l0TGlfnvpQ-0">
          <mxGeometry width="50" height="50" relative="1" as="geometry">
            <mxPoint x="380" y="220" as="sourcePoint" />
            <mxPoint x="430" y="170" as="targetPoint" />
          </mxGeometry>
        </mxCell>
        <mxCell id="LyfAbCHnZ2l0TGlfnvpQ-7" value="&lt;font style=&quot;font-size: 36px;&quot;&gt;j&lt;/font&gt;" style="ellipse;whiteSpace=wrap;html=1;aspect=fixed;" vertex="1" parent="WIyWlLk6GJQsqaUBKTNV-1">
          <mxGeometry x="240" y="640" width="80" height="80" as="geometry" />
        </mxCell>
        <mxCell id="LyfAbCHnZ2l0TGlfnvpQ-8" value="" style="endArrow=classic;html=1;rounded=0;entryX=0.5;entryY=0;entryDx=0;entryDy=0;exitX=0.5;exitY=1;exitDx=0;exitDy=0;" edge="1" parent="WIyWlLk6GJQsqaUBKTNV-1" source="LyfAbCHnZ2l0TGlfnvpQ-0" target="LyfAbCHnZ2l0TGlfnvpQ-7">
          <mxGeometry width="50" height="50" relative="1" as="geometry">
            <mxPoint x="210" y="480" as="sourcePoint" />
            <mxPoint x="260" y="430" as="targetPoint" />
          </mxGeometry>
        </mxCell>
        <mxCell id="LyfAbCHnZ2l0TGlfnvpQ-9" value="&lt;font style=&quot;font-size: 36px;&quot;&gt;j&lt;/font&gt;" style="ellipse;whiteSpace=wrap;html=1;aspect=fixed;" vertex="1" parent="WIyWlLk6GJQsqaUBKTNV-1">
          <mxGeometry x="440" y="240" width="80" height="80" as="geometry" />
        </mxCell>
        <mxCell id="LyfAbCHnZ2l0TGlfnvpQ-10" value="" style="endArrow=classic;html=1;rounded=0;entryX=0;entryY=0;entryDx=0;entryDy=0;exitX=1;exitY=0.5;exitDx=0;exitDy=0;" edge="1" parent="WIyWlLk6GJQsqaUBKTNV-1" source="LyfAbCHnZ2l0TGlfnvpQ-0" target="LyfAbCHnZ2l0TGlfnvpQ-9">
          <mxGeometry width="50" height="50" relative="1" as="geometry">
            <mxPoint x="350" y="240" as="sourcePoint" />
            <mxPoint x="400" y="190" as="targetPoint" />
          </mxGeometry>
        </mxCell>
        <mxCell id="LyfAbCHnZ2l0TGlfnvpQ-11" value="&lt;font style=&quot;font-size: 36px;&quot;&gt;_ order _&lt;/font&gt;" style="rounded=0;whiteSpace=wrap;html=1;" vertex="1" parent="WIyWlLk6GJQsqaUBKTNV-1">
          <mxGeometry x="560" y="100" width="190" height="60" as="geometry" />
        </mxCell>
        <mxCell id="LyfAbCHnZ2l0TGlfnvpQ-12" value="" style="endArrow=classic;html=1;rounded=0;exitX=0;exitY=1;exitDx=0;exitDy=0;entryX=1;entryY=0;entryDx=0;entryDy=0;" edge="1" parent="WIyWlLk6GJQsqaUBKTNV-1" source="LyfAbCHnZ2l0TGlfnvpQ-11" target="LyfAbCHnZ2l0TGlfnvpQ-9">
          <mxGeometry width="50" height="50" relative="1" as="geometry">
            <mxPoint x="512" y="300" as="sourcePoint" />
            <mxPoint x="480" y="250" as="targetPoint" />
          </mxGeometry>
        </mxCell>
        <mxCell id="LyfAbCHnZ2l0TGlfnvpQ-13" value="&lt;font style=&quot;font-size: 24px;&quot;&gt;Aggregate&lt;/font&gt;&lt;div&gt;&lt;font style=&quot;font-size: 24px;&quot;&gt;Node&lt;/font&gt;&lt;/div&gt;" style="shape=process;whiteSpace=wrap;html=1;backgroundOutline=1;" vertex="1" parent="WIyWlLk6GJQsqaUBKTNV-1">
          <mxGeometry x="410" y="370" width="140" height="60" as="geometry" />
        </mxCell>
        <mxCell id="LyfAbCHnZ2l0TGlfnvpQ-14" value="" style="endArrow=classic;html=1;rounded=0;exitX=0.5;exitY=1;exitDx=0;exitDy=0;entryX=0.5;entryY=0;entryDx=0;entryDy=0;" edge="1" parent="WIyWlLk6GJQsqaUBKTNV-1" source="LyfAbCHnZ2l0TGlfnvpQ-9" target="LyfAbCHnZ2l0TGlfnvpQ-13">
          <mxGeometry width="50" height="50" relative="1" as="geometry">
            <mxPoint x="490" y="360" as="sourcePoint" />
            <mxPoint x="540" y="310" as="targetPoint" />
          </mxGeometry>
        </mxCell>
        <mxCell id="LyfAbCHnZ2l0TGlfnvpQ-15" value="&lt;font style=&quot;font-size: 24px;&quot;&gt;&amp;lt;agg&amp;gt; #token &amp;lt;t&amp;gt;&lt;/font&gt;" style="rounded=0;whiteSpace=wrap;html=1;" vertex="1" parent="WIyWlLk6GJQsqaUBKTNV-1">
          <mxGeometry x="360" y="540" width="210" height="60" as="geometry" />
        </mxCell>
        <mxCell id="LyfAbCHnZ2l0TGlfnvpQ-16" value="" style="endArrow=classic;html=1;rounded=0;exitX=0;exitY=1;exitDx=0;exitDy=0;" edge="1" parent="WIyWlLk6GJQsqaUBKTNV-1" source="LyfAbCHnZ2l0TGlfnvpQ-15" target="LyfAbCHnZ2l0TGlfnvpQ-7">
          <mxGeometry width="50" height="50" relative="1" as="geometry">
            <mxPoint x="474" y="660" as="sourcePoint" />
            <mxPoint x="390" y="612" as="targetPoint" />
          </mxGeometry>
        </mxCell>
        <mxCell id="LyfAbCHnZ2l0TGlfnvpQ-17" value="" style="endArrow=classic;html=1;rounded=0;exitX=0.5;exitY=1;exitDx=0;exitDy=0;entryX=0.576;entryY=-0.033;entryDx=0;entryDy=0;entryPerimeter=0;" edge="1" parent="WIyWlLk6GJQsqaUBKTNV-1" source="LyfAbCHnZ2l0TGlfnvpQ-13" target="LyfAbCHnZ2l0TGlfnvpQ-15">
          <mxGeometry width="50" height="50" relative="1" as="geometry">
            <mxPoint x="550" y="480" as="sourcePoint" />
            <mxPoint x="600" y="430" as="targetPoint" />
          </mxGeometry>
        </mxCell>
        <mxCell id="LyfAbCHnZ2l0TGlfnvpQ-18" value="&lt;h1 style=&quot;margin-top: 0px;&quot;&gt;Items&lt;/h1&gt;&lt;p&gt;token&lt;sub&gt;1a&lt;/sub&gt; [under token&lt;sub&gt;1&lt;/sub&gt;]&lt;/p&gt;&lt;p&gt;token&lt;sub&gt;1b&lt;/sub&gt; [under token&lt;sub&gt;1&lt;/sub&gt;]&lt;/p&gt;&lt;p&gt;token&lt;sub&gt;2&lt;/sub&gt; [under token&lt;sub&gt;2&lt;/sub&gt;]&lt;/p&gt;" style="text;html=1;whiteSpace=wrap;overflow=hidden;rounded=0;perimeterSpacing=0;strokeWidth=2;strokeColor=default;" vertex="1" parent="WIyWlLk6GJQsqaUBKTNV-1">
          <mxGeometry x="620" y="310" width="180" height="130" as="geometry" />
        </mxCell>
        <mxCell id="LyfAbCHnZ2l0TGlfnvpQ-19" value="" style="endArrow=none;html=1;rounded=0;jumpStyle=gap;dashed=1;" edge="1" parent="WIyWlLk6GJQsqaUBKTNV-1">
          <mxGeometry width="50" height="50" relative="1" as="geometry">
            <mxPoint x="560" y="370" as="sourcePoint" />
            <mxPoint x="610" y="320" as="targetPoint" />
          </mxGeometry>
        </mxCell>
        <mxCell id="LyfAbCHnZ2l0TGlfnvpQ-20" value="" style="endArrow=none;html=1;rounded=0;dashed=1;" edge="1" parent="WIyWlLk6GJQsqaUBKTNV-1">
          <mxGeometry width="50" height="50" relative="1" as="geometry">
            <mxPoint x="560" y="400" as="sourcePoint" />
            <mxPoint x="610" y="430" as="targetPoint" />
          </mxGeometry>
        </mxCell>
        <mxCell id="LyfAbCHnZ2l0TGlfnvpQ-21" value="token&lt;sub&gt;1&lt;/sub&gt;&lt;div&gt;token&lt;sub&gt;2&lt;/sub&gt;&lt;/div&gt;" style="text;html=1;align=center;verticalAlign=middle;whiteSpace=wrap;rounded=0;" vertex="1" parent="WIyWlLk6GJQsqaUBKTNV-1">
          <mxGeometry x="384" y="190" width="60" height="30" as="geometry" />
        </mxCell>
        <mxCell id="LyfAbCHnZ2l0TGlfnvpQ-22" value="token&lt;sub&gt;1&lt;/sub&gt;&lt;div&gt;token&lt;sub&gt;2&lt;/sub&gt;&lt;/div&gt;" style="text;html=1;align=center;verticalAlign=middle;whiteSpace=wrap;rounded=0;" vertex="1" parent="WIyWlLk6GJQsqaUBKTNV-1">
          <mxGeometry x="220" y="420" width="60" height="30" as="geometry" />
        </mxCell>
        <mxCell id="LyfAbCHnZ2l0TGlfnvpQ-23" value="&lt;h1 style=&quot;margin-top: 0px;&quot;&gt;Items&lt;/h1&gt;&lt;p&gt;(aggr. for token&lt;sub&gt;1&lt;/sub&gt;) #token token&lt;sub&gt;1&lt;/sub&gt;&lt;/p&gt;&lt;p&gt;(aggr. for token&lt;span style=&quot;font-size: 10px;&quot;&gt;2&lt;/span&gt;) #token token&lt;span style=&quot;font-size: 10px;&quot;&gt;2&lt;/span&gt;&lt;/p&gt;" style="text;html=1;whiteSpace=wrap;overflow=hidden;rounded=0;perimeterSpacing=0;strokeWidth=2;strokeColor=default;" vertex="1" parent="WIyWlLk6GJQsqaUBKTNV-1">
          <mxGeometry x="620" y="520" width="180" height="105" as="geometry" />
        </mxCell>
        <mxCell id="LyfAbCHnZ2l0TGlfnvpQ-24" value="" style="endArrow=none;html=1;rounded=0;jumpStyle=gap;dashed=1;" edge="1" parent="WIyWlLk6GJQsqaUBKTNV-1">
          <mxGeometry width="50" height="50" relative="1" as="geometry">
            <mxPoint x="580" y="550" as="sourcePoint" />
            <mxPoint x="610" y="520" as="targetPoint" />
          </mxGeometry>
        </mxCell>
        <mxCell id="LyfAbCHnZ2l0TGlfnvpQ-25" value="" style="endArrow=none;html=1;rounded=0;dashed=1;" edge="1" parent="WIyWlLk6GJQsqaUBKTNV-1">
          <mxGeometry width="50" height="50" relative="1" as="geometry">
            <mxPoint x="580" y="600" as="sourcePoint" />
            <mxPoint x="610" y="620" as="targetPoint" />
          </mxGeometry>
        </mxCell>
      </root>
    </mxGraphModel>
  </diagram>
</mxfile>
